<?xml version="1.0" encoding="utf-8"?>
<!-- Generator: Adobe Illustrator 27.5.0, SVG Export Plug-In . SVG Version: 6.00 Build 0)  -->
<svg version="1.1" id="Layer_1" xmlns="http://www.w3.org/2000/svg" xmlns:xlink="http://www.w3.org/1999/xlink" x="0px" y="0px"
	 viewBox="0 0 2000 2000" style="enable-background:new 0 0 2000 2000;" xml:space="preserve">
<g>
	<rect style="fill:#FFFFFF;" width="2000" height="2000"/>
	<g>
		<g>
			<path style="fill:none;stroke:#F4EBD7;stroke-width:2.5965;stroke-miterlimit:10;" d="M1467.535,1280.135
				c12.476-8.753,25.331-16.93,38.976-23.942c70.203-36.075,135.925-73.101,190.756-129.927
				c64.943-67.307,110.466-158.208,110.473-253.58c0.007-95.372-51.312-193.15-135.808-232.709
				c-105.157-49.232-225.46-2.42-339.886,9.381c-147.504,15.212-294.155-29.686-439.716-60.693
				c-145.561-31.007-303.757-46.779-435.955,21.478c-106.441,54.957-184.826,163.733-205.312,284.912
				c-20.486,121.179,17.411,251.896,99.263,342.384c118.098,130.557,303.858,165.716,476.102,174.044
				c126.93,6.137,254.247,1.722,380.309-13.189c56.863-6.726,110.086-18.294,160.299-46.577
				C1403.16,1331.37,1433.981,1303.675,1467.535,1280.135z"/>
			<path style="fill:#F4EBD7;" d="M685.901,1399.816c-88.669-10.488-177.893-31.912-256.24-78.864
				c-78.347-46.952-145.224-121.903-171.318-213.602c-26.094-91.7-5.477-199.751,61.684-260.9
				c83.583-76.102,207.415-63.998,316.247-83.95c140.293-25.72,263.356-109.004,389.213-178.633s267.542-128.066,408.219-98.596
				c113.267,23.727,215.362,106.876,267.415,217.787s52.833,246.964,2.043,356.358c-73.281,157.836-235.102,242.453-391.789,297.575
				c-115.466,40.62-234.175,71.2-354.596,91.346c-44.267,7.405-89.448,13.402-134.039,6.391
				c-44.591-7.012-89.118-28.554-116.71-67.135L685.901,1399.816z"/>
		</g>
		<line style="fill:none;stroke:#102048;stroke-width:5;stroke-miterlimit:10;" x1="0" y1="1576.653" x2="1999.194" y2="1576.653"/>
		<g>
			<g>
				<defs>
					<polygon id="SVGID_1_" points="1058.445,385.363 1058.445,865.535 1058.445,929.683 1132.97,865.535 1651.82,865.535 
						1651.82,385.363 					"/>
				</defs>
				<clipPath id="SVGID_00000060751491782291501660000003994369307090612115_">
					<use xlink:href="#SVGID_1_"  style="overflow:visible;"/>
				</clipPath>
				<g style="clip-path:url(#SVGID_00000060751491782291501660000003994369307090612115_);">
					<rect x="1058.444" y="385.363" style="fill:#FFFFFF;" width="593.375" height="570.71"/>
					<g>
						<g>
							<g style="opacity:0.6;">
								<path style="fill:none;stroke:#1F3C88;stroke-width:2.5;stroke-miterlimit:10;stroke-dasharray:19.9078,19.9078;" d="
									M1226.844,742.354c-53.626-33.45-75.684-88.969-75.874-142.541c-0.159-45.028,19.365-100.572,83.915-90.68
									c43.394,6.65,79.687,33.174,121.276,44.896c33.674,9.49,69.423,6.717,103.516,5.038
									c53.442-2.631,111.573,28.433,117.223,64.079c7.574,47.785,0.561,100.729-41.552,128.556
									C1461.594,800.438,1309.824,794.113,1226.844,742.354z"/>
							</g>
						</g>
						<path style="fill:#D3DFFF;" d="M1271.728,797.376c-62.449-9.739-104.512-52.16-125.697-101.366
							c-17.806-41.358-21.628-100.109,41.63-116.325c42.525-10.901,86.313-0.735,129.167-6.263
							c34.698-4.476,66.496-21.047,97.199-35.962c48.129-23.38,103.931-33.037,132.963,12.973
							c25.818,40.917,20.411,97.113-7.414,139.227C1490.844,763.416,1368.36,812.446,1271.728,797.376z"/>
						<g>
							<g>
								
									<ellipse transform="matrix(0.2298 -0.9732 0.9732 0.2298 461.7699 1473.2769)" style="fill:#EE6F57;" cx="1161.667" cy="444.903" rx="24.803" ry="24.803"/>
								<path style="fill:#FFFFFF;" d="M1167.054,455.476l-5.427-7.326l-5.466,7.326h-5.462l8.235-10.731l-7.881-10.415h5.504
									l5.188,6.93l5.188-6.93h5.346l-7.919,10.335l8.274,10.812H1167.054z"/>
							</g>
							<g>
								<g>
									
										<ellipse transform="matrix(0.2468 -0.9691 0.9691 0.2468 491.922 1522.7283)" style="fill:#FBC343;" cx="1225.556" cy="444.903" rx="24.803" ry="24.803"/>
								</g>
								<g>
									<rect x="1215.574" y="442.18" style="fill:#FFFFFF;" width="19.965" height="5.445"/>
								</g>
							</g>
						</g>
						<g>
							<path style="fill:#6F3428;" d="M1452.037,735.713c-62.066,35.544-92.197,25.781-101.964,20.265
								c-9.737,5.516-39.867,15.28-101.934-20.265c-59.458-34.081-24.8-107.354-1.383-151.936
								c12.72-24.217,22.533-49.774,44.846-67.23c20.989-16.419,44.508-21.49,72.087-20.128
								c37.916,1.872,61.439,24.454,73.068,51.542c9.25,21.549,20.738,41.704,30.843,62.805
								c9.47,19.775,17.101,41.298,17.809,63.248C1486.233,699.549,1475.212,722.43,1452.037,735.713z"/>
							<path style="fill:#EE6F57;" d="M1466.832,731.386c-38.016-42.768-108.023-33.843-115.473-32.754
								c-7.45-1.089-77.456-10.014-115.473,32.754c-28.626,32.204-28.255,160.741-28.255,160.741
								c0-3.17,133.167-4.102,143.728-4.171c10.561,0.069,143.728,1.001,143.728,4.171
								C1495.087,892.127,1495.458,763.59,1466.832,731.386z"/>
							<g>
								<path style="fill:#E28B6D;" d="M1292.377,602.356c-14.913,1.524-27.341,37.866,13.012,38.628l9.65-11.43L1292.377,602.356z"
									/>
								<path style="fill:#E28B6D;" d="M1410.689,602.356c16.822,0.88,28.773,37.866-11.58,38.628l-9.65-11.43L1410.689,602.356z"/>
							</g>
							<path style="fill:#F9B384;" d="M1351.359,732.642L1351.359,732.642c-18.553,0-33.592-15.04-33.592-33.592v-42.383h67.184
								v42.383C1384.951,717.603,1369.911,732.642,1351.359,732.642z"/>
							<path style="fill:#E28B6D;" d="M1384.771,665.656c-22.099,36.008-44.537,35.374-67.287,1.246L1384.771,665.656z"/>
							<path style="fill:#F9B384;" d="M1416.162,575.441c-0.329,3.289-0.718,6.519-1.136,9.719
								c-6.968,53.261-25.151,94.949-64.655,94.949c-40.552,0-54.667-40.013-62.083-95.667c-0.628-4.546-1.166-9.241-1.705-13.996
								l79.757-31.879L1416.162,575.441z"/>
							<path style="fill:#6F3428;" d="M1280.103,601.11c20.311,6.853,59.063-16.074,59.063-16.074
								c-3.008-8.718,1.248-17.297,9.719-25.793c-0.504,8.635,1.495,22.18,9.221,27.164c0,0,5.233,1.246,13.333-0.498
								c-1.978-9.871-0.534-18.523,5.483-25.544c0,0,9.096,24.796,13.582,30.404c5.672,7.09,26.091,17.802,44.359,8.847
								l-34.017-77.006l-90.09-1.869l-40.746,37.755L1280.103,601.11z"/>
							<ellipse style="fill:#6F3428;" cx="1328.172" cy="603.311" rx="5.37" ry="7.339"/>
							<ellipse style="fill:#6F3428;" cx="1373.277" cy="603.311" rx="5.37" ry="7.339"/>
							<path style="fill:#E28B6D;" d="M1357.78,623.103c0,7.123,0.567,12.735-5.353,12.897c-5.627,0.154-5.352-5.774-5.352-12.897
								c0-7.123,2.396-12.897,5.352-12.897C1355.383,610.206,1357.78,615.981,1357.78,623.103z"/>
							<path style="fill:#FFFFFF;" d="M1335.897,648.043l33.878-0.936C1369.775,647.107,1355.626,674.174,1335.897,648.043z"/>
							<circle style="opacity:0.3;fill:#EE6F57;" cx="1384.668" cy="628.751" r="14.351"/>
							
								<ellipse transform="matrix(0.1595 -0.9872 0.9872 0.1595 489.8315 1835.7996)" style="opacity:0.3;fill:#EE6F57;" cx="1322.989" cy="630.246" rx="14.351" ry="14.351"/>
							<g style="opacity:0.4;">
								<path style="fill:#6F3428;" d="M1311.724,732.441c2.401,2.799,5.428,5.033,8.763,6.715
									c3.293,1.746,6.803,3.115,10.413,4.125c7.225,1.997,14.762,2.922,22.223,2.591c7.449-0.323,14.856-1.86,21.594-4.964
									c6.749-3.085,12.639-7.919,17.294-13.926l1.47,0.956c-1.909,3.467-4.414,6.618-7.261,9.441
									c-2.911,2.757-6.213,5.122-9.759,7.038c-7.136,3.803-15.184,5.592-23.156,5.916c-7.986,0.278-16.014-0.806-23.546-3.44
									c-3.758-1.323-7.422-2.965-10.81-5.117c-3.342-2.18-6.508-4.855-8.664-8.332L1311.724,732.441z"/>
							</g>
							<g style="opacity:0.4;">
								<path style="fill:#6F3428;" d="M1273.696,786.995c0.29,7.619,0.313,15.229,0.275,22.837
									c0.011,7.61-0.193,15.212-0.404,22.815c-0.239,7.602-0.543,15.201-1.014,22.795l-0.763,11.389
									c-0.352,3.793-0.617,7.589-1.061,11.379l-1.752-0.057c-0.197-3.811-0.215-7.616-0.32-11.424l-0.021-11.415
									c0.023-7.609,0.213-15.212,0.469-22.813c0.284-7.6,0.574-15.2,1.08-22.793c0.456-7.594,0.974-15.187,1.758-22.771
									L1273.696,786.995z"/>
							</g>
							<g style="opacity:0.4;">
								<path style="fill:#6F3428;" d="M1432.392,783.174c1.276,7.611,2.288,15.248,3.237,22.891
									c0.999,7.638,1.783,15.297,2.562,22.957c0.75,7.662,1.435,15.331,1.953,23.016l0.722,11.532
									c0.144,3.853,0.373,7.699,0.425,11.561l-1.745,0.169c-0.69-3.801-1.202-7.619-1.8-11.428l-1.502-11.457
									c-0.964-7.642-1.764-15.299-2.496-22.963c-0.705-7.667-1.404-15.334-1.888-23.022c-0.534-7.683-1.006-15.372-1.213-23.087
									L1432.392,783.174z"/>
							</g>
						</g>
					</g>
				</g>
				<use xlink:href="#SVGID_1_"  style="overflow:visible;fill:none;stroke:#708CD5;stroke-width:3.5;stroke-miterlimit:10;"/>
			</g>
		</g>
		<g>
			<ellipse style="opacity:0.15;fill:#1F3C88;" cx="243.333" cy="1669.338" rx="95" ry="18.088"/>
			<g>
				<g>
					<path style="fill:#1F3C88;" d="M199.752,1634.13c-20.555,0-43.436-30.09-43.436-50.483c0-20.727,16.526-37.59,36.838-37.59
						c20.314,0,36.84,16.863,36.84,37.59C229.993,1603.166,221.783,1634.13,199.752,1634.13z M193.154,1558.557
						c-13.42,0-24.338,11.255-24.338,25.09c0,15.264,18.503,37.983,30.936,37.983c11.423,0,17.742-22.458,17.742-37.983
						C217.493,1569.812,206.574,1558.557,193.154,1558.557z"/>
				</g>
				<path style="fill:#1F3C88;" d="M270.819,1666.655h-54.085c-8.987,0-16.472-6.89-17.215-15.846l-11.185-134.779h113.125
					l-13.45,135.062C287.129,1659.926,279.696,1666.655,270.819,1666.655z"/>
				<path style="fill:#D3DFFF;" d="M201.452,1354.375c-3.79,12.688-5.484,25.746-3.333,38.308
					c1.069,6.257,2.851,12.365,5.325,18.224c2.547,5.832,5.704,11.423,9.302,16.758c3.721,5.261,7.669,10.418,12.136,15.187
					c1.057,1.149,2.211,2.573,3.37,3.962c1.132,1.405,2.335,2.725,3.395,4.202l3,4.612c1.038,1.501,1.658,3.35,2.482,5.009
					c0.87,1.641,1.29,3.556,1.832,5.377c0.631,1.791,0.734,3.777,0.963,5.69c0.146,0.955,0.121,1.929,0.033,2.908l-0.197,2.911
					c-0.138,0.959-0.403,1.904-0.608,2.848c-0.214,0.945-0.419,1.888-0.819,2.767l-1.093,2.653
					c-0.446,0.837-0.935,1.648-1.403,2.463c-0.441,0.835-1.011,1.574-1.57,2.316c-0.559,0.741-1.085,1.506-1.743,2.152
					c-2.465,2.77-5.213,5-8.494,6.849l-2.085-3.307c4.629-4.076,8.421-9.555,9.706-15.197c0.251-0.687,0.31-1.413,0.39-2.128
					c0.071-0.716,0.214-1.418,0.241-2.131l-0.095-2.144c0.004-0.709-0.042-1.417-0.247-2.122c-0.329-1.406-0.419-2.825-1.059-4.187
					c-0.542-1.367-0.893-2.766-1.736-4.057c-0.785-1.297-1.328-2.662-2.264-3.903l-2.684-3.751
					c-0.957-1.217-2.096-2.341-3.127-3.517l-3.32-3.619c-2.374-2.545-4.744-5.096-6.916-7.848c-2.288-2.641-4.303-5.535-6.325-8.406
					c-3.817-5.913-7.387-12.07-9.923-18.744c-2.511-6.666-4.295-13.654-4.938-20.771c-1.462-14.273,1.93-28.599,8.186-40.845
					L201.452,1354.375z"/>
				<path style="fill:#D3DFFF;" d="M250.582,1350.518c6.996,5.734,12.721,13.718,15.36,22.929c1.383,4.569,1.974,9.355,2.042,14.103
					c0.065,4.762-0.703,9.432-1.644,14.001c-1.066,4.539-2.594,8.922-4.365,13.142l-1.185,2.898c-0.35,0.906-0.78,1.813-1.077,2.722
					l-0.758,2.728c-0.279,0.918-0.31,1.785-0.501,2.689c-0.229,0.917-0.139,1.755-0.179,2.633c-0.1,0.902,0.14,1.687,0.218,2.537
					c0.03,0.875,0.43,1.592,0.599,2.437c0.373,0.737,0.644,1.56,1.151,2.257c1.737,2.945,5.071,5.451,8.554,7.034l-0.766,3.833
					c-4.963-0.516-9.587-2.634-13.289-6.547c-0.926-0.95-1.626-2.123-2.378-3.24c-0.546-1.211-1.308-2.41-1.626-3.706
					c-0.353-1.287-0.784-2.607-0.844-3.906c-0.122-1.302-0.332-2.647-0.203-3.9c0.098-1.256,0.028-2.603,0.309-3.8l0.746-3.646
					c0.301-1.188,0.721-2.301,1.083-3.457c0.385-1.153,0.754-2.336,1.109-3.236c1.563-3.854,2.687-7.813,3.714-11.75
					c0.943-3.951,1.528-7.944,1.774-11.924c0.186-3.981-0.094-7.944-0.77-11.862c-1.384-7.859-5.07-15.265-9.92-22.292
					L250.582,1350.518z"/>
			</g>
		</g>
		<g>
			<ellipse style="opacity:0.15;fill:#1F3C88;" cx="1686.458" cy="1668.125" rx="190" ry="28.125"/>
			<rect x="1671.886" y="1210" style="fill:#27481F;" width="26.667" height="260.833"/>
			<path style="fill:#49883A;" d="M1691.883,1192.475c-0.35,18.875-2.1,34.775-3.575,45.05c-1.125,7.9-2.075,12.45-2.075,12.45
				c-72.8-23.625-106.2-68.75-120.1-114.275c-1.3-4.15-2.4-8.325-3.35-12.475c-14.7-63.35,5-123.7,5-123.7
				c33.375,6.975,58.05,21.525,76.175,40.25c3.125,3.2,6.025,6.5,8.75,9.925C1686.258,1091.75,1692.683,1149.725,1691.883,1192.475z
				"/>
			<path style="fill:#49883A;" d="M1786.258,1066.375c-1.45,50.65-21.15,109.65-82.25,166.3c-4.675,4.35-9.625,8.7-14.825,13.025
				c-0.55,0.475-1.1,0.925-1.65,1.375c0,0-10.125-14.85-20.55-39c-0.15-0.35-0.3-0.675-0.425-1.025
				c-3.65-8.525-7.325-18.2-10.575-28.775c-2.675-8.625-5.075-17.825-7-27.525c-7.35-37.275-7.375-81.475,12.95-125.225
				c15.25-32.95,42.05-65.625,85.9-94.95C1747.833,930.575,1788.508,988.675,1786.258,1066.375z"/>
			<path style="opacity:0.5;fill:#27481F;" d="M1704.008,1232.675c-4.675,4.35-9.625,8.7-14.825,13.025
				c-0.55,0.475-1.1,0.925-1.65,1.375c0,0-10.125-14.85-20.55-39c-0.142-0.33-0.285-0.691-0.427-1.024c0,0,0.001,0,0.002-0.001
				c-0.882-2.06-1.765-4.193-2.643-6.383c-0.334-0.836-0.664-1.717-0.997-2.571c-0.573-1.468-1.148-2.924-1.713-4.445
				c-0.443-1.193-0.873-2.444-1.31-3.668c-0.457-1.283-0.921-2.539-1.369-3.856c-0.87-2.558-1.722-5.174-2.543-7.852
				c-2.675-8.625-5.075-17.825-7-27.525c-6-30.4-7.125-65.425,3.725-101.05c-2.725-3.425-5.625-6.725-8.75-9.925
				c-7.006,18.493-18.392,60.886-19.744,99.117c-16.829-6.596-37.068-12.005-61.431-15.667c0.95,4.15,2.05,8.325,3.35,12.475
				c-10.375-2.475-21.6-4.65-33.725-6.45c9.575,32.65,47.975,136.65,148.175,138.2c2.55,0.05,5.125,0.025,7.75-0.075
				c4.125-0.125,8.35-0.45,12.7-0.95C1701.033,1266.425,1705.533,1252.25,1704.008,1232.675z"/>
			<path style="fill:#49883A;" d="M1688.958,1261.925c0,0.075,0,0.175-0.025,0.25c-0.05,0.625-0.1,1.225-0.175,1.8
				c-0.05,0.275-0.075,0.55-0.1,0.825c-0.05,0.475-0.1,0.925-0.175,1.375c-0.175,1.375-0.375,2.65-0.575,3.875
				c-0.125,0.8-0.275,1.575-0.425,2.325c-1.325,6.725-2.825,10.725-2.825,10.725c-7.125,0.45-13.925,0.425-20.475-0.025
				c-118.625-7.95-142.975-155.4-142.975-155.4c3.825,0.475,7.55,1,11.2,1.575c12.125,1.8,23.35,3.975,33.725,6.45
				c42.875,10.2,71.25,25.575,89.85,42.575c5.6,5.1,10.3,10.375,14.225,15.675c11,14.8,16.125,30,18.1,43.575
				c0.425,2.8,0.7,5.525,0.875,8.175C1689.558,1251.6,1689.408,1257.075,1688.958,1261.925z"/>
			<path style="opacity:0.38;fill:#27481F;" d="M1786.258,1066.375c-0.725,25.325-6.025,52.725-18.775,80.9
				c-12.725,28.175-32.925,57.075-63.475,85.4c-0.125,0.1-0.25,0.225-0.375,0.325c-1.8,1.675-3.65,3.35-5.55,5.025
				c-0.55,0.5-1.1,1-1.675,1.5c-2.35,2.05-4.75,4.125-7.225,6.175c-0.175-2.65-0.45-5.375-0.875-8.175
				c-1.975-13.575-7.1-28.775-18.1-43.575c-3.925-5.3-8.625-10.575-14.225-15.675c-2.675-8.625-5.075-17.825-7-27.525
				c6.775,3.95,12.775,8.125,18.025,12.475c3.725,3.05,7.025,6.175,10.05,9.35C1692.683,1131.7,1724.158,1089.85,1786.258,1066.375z
				"/>
			<path style="opacity:0.2;fill:#27481F;" d="M1688.958,1261.925c0,0.075,0,0.175-0.025,0.25c-0.05,0.625-0.1,1.225-0.175,1.8
				c-0.05,0.275-0.075,0.55-0.1,0.825c-0.05,0.475-0.1,0.925-0.175,1.375c-0.175,1.375-0.375,2.65-0.575,3.875
				c-0.15,0.8-0.275,1.575-0.425,2.325c-1.325,6.725-2.825,10.725-2.825,10.725c-7.125,0.45-13.925,0.425-20.475-0.025
				c-1.1-8.175-4.275-38.6,2.8-75c0.9-4.625,1.975-9.35,3.225-14.125c11,14.8,16.125,30,18.1,43.575
				c0.425,2.8,0.7,5.525,0.875,8.175C1689.558,1251.6,1689.408,1257.075,1688.958,1261.925z"/>
			<path style="fill:#FBC343;" d="M1803.133,1437.5l-29.325,191.95c-3.275,21.4-21.675,37.2-43.325,37.2h-88.05
				c-19.175,0-35.825-12.4-41.625-30.125c-0.75-2.275-1.325-4.65-1.7-7.075l-29.325-191.95H1803.133z"/>
			<path style="fill:#49883A;" d="M1681.583,1283.334c0,0-32.13-190.557,172.215-218.03
				C1853.798,1065.304,1866.616,1274.118,1681.583,1283.334z"/>
			<path style="opacity:0.4;fill:#C89B35;" d="M1803.133,1437.5l-29.325,191.95c-3.275,21.4-21.675,37.2-43.325,37.2h-88.05
				c-19.175,0-35.825-12.4-41.625-30.125c114.325-18.325,144.975-136.025,151.175-199.025H1803.133z"/>
		</g>
		<g>
			<path style="opacity:0.15;fill:#1F3C88;" d="M1378.275,1670.444c0-23.446-208.87-42.453-466.524-42.453
				s-466.524,19.007-466.524,42.453c0,19.017,137.416,35.112,326.815,40.515c20.625,33.837-13.803,74.309-40.19,88.908
				c-46.336,2.313-79.589,7.468-74.352,18.466c24.763,52.002,235.208-3.333,235.208-3.333s82.292,5.116,82.292-2.708
				c0-3.602-14.495-6.887-38.328-9.387l1.761-0.104l-88.841-90.279c20.338,0.246,41.081,0.376,62.159,0.376
				C1169.405,1712.897,1378.275,1693.89,1378.275,1670.444z"/>
			<path style="fill:#EE6F57;" d="M1419.483,1358.6c-6.15,101.475-57.3,202.875-141.15,258.675
				c-99.95,66.525-239.7,51.8-353.525,60.275c-98.4,7.325-197.55,13.625-295.975,3.15c-80.65-8.6-162-40.55-200.525-118.85
				c-38.6-78.475-42.775-182.75-4.175-262.175c12.3-25.35,28.775-47.875,48.15-67.525c3.15-3.225,6.425-6.375,9.75-9.45
				c2.25-2.075,4.525-4.125,6.85-6.125c3.55-3.075,7.2-6.075,10.9-9c1.225-0.95,2.45-1.9,3.7-2.85c1.225-0.95,2.475-1.875,3.725-2.8
				s2.5-1.85,3.775-2.75c0.95-0.675,1.9-1.35,2.85-2.025c1.575-1.125,3.175-2.225,4.8-3.3c14.375-9.7,29.525-18.225,45.15-25.55
				c15.2-7.175,30.85-13.225,46.6-18.125c51.775-16.075,105.85-21.775,159.275-28.8c113.375-14.875,228.8-19.95,343.075-19.875
				c93.25,0.025,198.25,13.975,260.6,94.025C1408.533,1240.725,1423.008,1300.8,1419.483,1358.6z"/>
			<path style="fill:#F9B384;" d="M1227.51,1187.21c0,0,24.053-22.595,36.799-35.673c12.746-13.078-15.064-13.501-28.771,2.796
				C1221.831,1170.631,1227.51,1187.21,1227.51,1187.21z"/>
			<path style="fill:#B35341;" d="M563.783,1168.3c-15.625,7.325-30.775,15.85-45.15,25.55c-1.625,1.075-3.225,2.175-4.8,3.3
				c-0.95,0.675-1.9,1.35-2.85,2.025c-1.275,0.9-2.525,1.825-3.775,2.75s-2.5,1.85-3.725,2.8c-1.25,0.95-2.475,1.9-3.7,2.85
				c-3.65,2.9-7.225,5.875-10.75,8.925l-0.15,0.075c-2.325,2-4.6,4.05-6.85,6.125c-3.325,3.075-6.6,6.225-9.75,9.45
				c0.275,2.65,2,5.2,4.835,5.782c18.764,3.796,28.161,21.698,43.284,31.876c11.224,7.553,24.492,9.625,37.192,5.296
				c-13.674,28.958-21.216,57.685-15.312,90.096c1.797,9.8,4.91,19.343,9.156,28.355c-17.573-13.052-34.499-41.01-41.461-69.362
				c-0.989-4.024-5.054-6.547-9.072-5.494c-4.022,0.987-6.483,5.047-5.495,9.072c8.618,35.101,30.559,68.829,53.354,82.016
				c5.428,3.14,10.94,5.138,16.399,6.057c4.516,5.786,9.556,11.162,15.094,15.981l33.7,9.425l27.5-177.5L563.783,1168.3z"/>
			<path style="fill:#708CD5;" d="M661.458,1287.5c-69.677-27.137-118.051-55.996-146.134-75.213
				c-18.203-12.456-27.41-34.419-23.68-56.158l35.93-209.436c3.698-21.556,17.991-39.883,38.092-48.501
				c57.643-24.717,113.766-38.842,163.292-45.691c0,0,27.743-2.238,63.125,1.25c23.284,2.296,76.586,18.003,110.469,28.526
				c19.145,5.946,34.51,20.281,41.76,38.971c14.206,36.62,37.286,98.457,44.645,131.878c25.417,115.417,21.25,106.875,21.25,106.875
				l26.25,177.5l-278.75,15.625l-71.25-32.5L661.458,1287.5z"/>
			<path style="fill:#102048;" d="M833.958,653.125c0,0-24.688-50.625-90.313-27.5c-47.5-10.313-83.75,45.938-48.75,122.5
				l65.938,15.313L833.958,653.125z"/>
			<path style="fill:#F9B384;" d="M798.958,796.25v89.55c0,20.95-17,37.95-37.95,37.95c-28.4,0-51.425-23.025-51.425-51.425V796.25
				H798.958z"/>
			<path style="fill:#E28B6D;" d="M798.958,833.4v48.85c-39.825,0.2-66.25-51.3-66.25-51.3L798.958,833.4z"/>
			<path style="fill:#F9B384;" d="M838.358,784.975c-2.4,12.4-5.825,25.1-10.75,36.275c-8.6,19.625-21.725,34.575-41.775,35
				c-46.925,1-83.125-63.125-83.125-63.125l7.5-87.5l35.625-40l98.125,60.625C843.958,726.25,844.233,754.7,838.358,784.975z"/>
			<path style="fill:#102048;" d="M708.646,767.5c0,0,9.688-39.375,43.438-65c0,0,49.063,64.063,100.938,33.125
				s29.375-91.875-19.063-82.5l-55.625-6.25l-69.688,22.188l-11.875,54.688L708.646,767.5z"/>
			<path style="opacity:0.4;fill:#1F3C88;" d="M757.896,1221.306c-47.271-102.14-106.854-53.39-121.437-90.89
				c-20.434-52.545-16.561-111.986-16.667-130l-28.471,160.314c0,0,63.565,6.043,87.065,44.316L757.896,1221.306z"/>
			<path style="fill:#1F3C88;" d="M621.242,997.683c-1.773,13.715-3.862,27.374-6.022,41.02c-2.1,13.657-4.569,27.249-6.835,40.876
				c-2.373,13.609-4.866,27.196-7.532,40.753l-4.073,20.322c-1.473,6.754-2.844,13.525-4.425,20.26l-2.068-0.366
				c0.826-6.868,1.862-13.699,2.796-20.548l3.149-20.486c2.148-13.648,4.471-27.266,6.912-40.862
				c2.548-13.578,4.895-27.191,7.609-40.739c2.654-13.559,5.38-27.105,8.421-40.595L621.242,997.683z"/>
			<path style="fill:#1F3C88;" d="M897.42,972.328c3.784,17.812,7.276,35.675,10.7,53.551c3.48,17.866,6.618,35.793,9.943,53.686
				c3.172,17.921,6.277,35.853,9.295,53.801l4.362,26.952c1.347,9.003,2.788,17.989,4.034,27.01l-1.924,0.343
				c-1.949-8.896-3.702-17.826-5.55-26.74l-5.222-26.798c-3.371-17.885-6.654-35.786-9.872-53.699
				c-3.063-17.94-6.314-35.847-9.223-53.814c-2.965-17.958-5.862-35.927-8.467-53.949L897.42,972.328z"/>
			<path style="opacity:0.4;fill:#1F3C88;" d="M910.625,1055c3.333,32.5-1.667,200.833-80,203.333l0.833,36.667l123.333-7.5
				L910.625,1055z"/>
			<path style="fill:#E28B6D;" d="M749.583,1253.75c55.625-23.75,66.259-22.865,73.75-22.5c25.625,1.25,62.5,52.5,62.5,52.5
				l-0.625,9.375H744.583L749.583,1253.75z"/>
			<rect x="790.417" y="1283.958" style="fill:#FFFFFF;" width="173.125" height="26.25"/>
			<polygon style="fill:#FBC343;" points="1198.958,1310.23 898.125,1310.23 965.625,1041.395 1266.458,1041.395 			"/>
			<path style="fill:#C89B35;" d="M1226.223,1200.279c-29.765-4.446-126.015-24.446-324.348,96.387l-4.583,16.667l301.667-3.103
				L1226.223,1200.279z"/>
			<g>
				<path style="fill:#F9B384;" d="M1231.927,1260c-1.875,12.656-2.5,31.25-41.719,28.906l-11.563-5.938l10.938-12.031
					l23.594-12.031L1231.927,1260z"/>
				<path style="fill:#F9B384;" d="M1235.625,1225.833c0,0,21.463,28.04-0.104,36.667c-23.438,9.375-45.938,8.438-45.938,8.438
					c10-28.125,42.5-26.25,42.5-26.25L1235.625,1225.833z"/>
				<path style="fill:#F9B384;" d="M1236.25,1207.708c0,0,29.583,27.5,2.083,35.208c-38.836,10.886-50.833,11.667-50.833,11.667
					c-2.083-20.625,36.458-33.958,36.458-33.958L1236.25,1207.708z"/>
				<path style="fill:#F9B384;" d="M1230.208,1183.75c0,0,40.417,24.583,2.5,38.333s-46.875,13.542-46.875,13.542
					c-2.083-20.625,38.542-27.708,38.542-27.708L1230.208,1183.75z"/>
				<path style="fill:none;stroke:#E28B6D;stroke-width:2.5;stroke-miterlimit:10;" d="M1185.833,1235.625
					c0,0,44.063-6.25,57.188-16.875"/>
				<path style="fill:none;stroke:#E28B6D;stroke-width:2.5;stroke-miterlimit:10;" d="M1187.5,1254.583
					c0,0,45.833-6.458,60.208-16.458"/>
				<path style="fill:none;stroke:#E28B6D;stroke-width:2.5;stroke-miterlimit:10;" d="M1189.583,1270.938
					c0,0,27.188,0.938,42.5-6.563"/>
			</g>
			<path style="fill:#102048;" d="M762.708,1665c4.583-2.5,77.083,13.333,157.5-46.25l-103.75-29.583L762.708,1665z"/>
			<path style="fill:#B35341;" d="M1223.383,1320.875c3.45-4.925,6.425-12.175,2.075-16.325c-4.525-4.35-11.925-0.525-16.675,3.575
				c-8.375,7.2-15.975,15.1-23,23.5l-175.15,32.55l-240,58.325l41.264,52.67c120,8.75,188.346,11.001,263.442-2.252
				c38.278-6.755,72.494-13.719,98.019-34.519c6.075-4.975,11.825-13.325,7.875-20.1c-2.675-4.575-8.225-5.775-13.8-5.725
				c12.825-3.025,25.275-7.45,37.1-13.225c5.275-2.55,11.15-6.55,11.025-12.4c-0.075-4.2-3.475-7.75-7.375-9.25
				s-8.2-1.375-12.375-1.075c-16,1.2-31.825,4.7-46.85,10.35C1176.308,1367.875,1204.133,1348.1,1223.383,1320.875z
				 M1148.583,1387.225c0-0.05,0.025-0.075,0.075-0.125c0.075-0.025,0.175-0.05,0.25-0.1
				C1148.808,1387.075,1148.683,1387.15,1148.583,1387.225z"/>
			<path style="fill:#102048;" d="M821.458,1343.75c0,0,233.75-111.25,310-106.25s73.75,100,45,141.25s-96.25,96.25-345,80
				L821.458,1343.75z"/>
			<path style="fill:#D3DFFF;" d="M938.433,1802.8c-12.65,3.575-30.6,4.45-55.3,0.525c0,0-32,8.3-63.5,14.825
				c-21.325,4.425-42.4,8.025-53.175,7.675c-0.925-0.025-1.85-0.075-2.8-0.15c-20.675-1.475-46.725-12.25-60.55-27.65
				c-0.025-0.05-0.05-0.1-0.1-0.125c-3.8-4.25-6.675-8.875-8.225-13.725c-7.5-23.35,8.35-51.675,94.175-45.85
				c0,0,28.325-6.65,35-27.5c6.675-20.825-42.5-120.825-42.5-120.825l70-47.5l68.75,76.25c0,0,10.425,68.75,10.425,91.25
				c0,0,29.15,41.675,33.325,60C966.633,1781.7,960.783,1796.475,938.433,1802.8z"/>
			<path style="fill:#1F3C88;" d="M544.855,1169.636c8.018-3.087,16.187-5.579,24.447-7.872c4.134-1.13,8.295-2.187,12.533-3.017
				c2.115-0.428,4.254-0.793,6.422-1.093c1.091-0.146,2.175-0.259,3.308-0.348c1.203-0.057,2.382-0.047,3.504,0.067
				c8.98,0.942,17.121,3.764,25.208,6.752c8.045,3.065,15.92,6.496,23.652,10.212c7.756,3.67,15.303,7.753,22.728,12.037
				c7.421,4.291,14.723,8.792,21.82,13.608c14.1,9.734,27.669,20.425,39.348,33.024l-1.483,1.487
				c-6.285-5.686-12.826-11.061-19.63-16.093c-6.75-5.098-13.737-9.884-20.881-14.418c-14.172-9.255-29.054-17.397-44.201-24.914
				c-7.579-3.752-15.295-7.221-23.135-10.314c-7.833-2.928-15.854-6.066-23.834-7.147c-0.997-0.139-1.945-0.172-2.873-0.167
				c-0.989,0.048-2.029,0.128-3.052,0.236c-2.058,0.227-4.129,0.52-6.199,0.881c-4.138,0.723-8.284,1.563-12.415,2.491
				c-8.255,1.878-16.484,4.067-24.561,6.566L544.855,1169.636z"/>
			<path style="fill:#B35341;" d="M586.458,1496.875c28.125-1.875,55.765,0.139,75.833-6.875c21.458-7.5,77.5-2.5,77.5-2.5
				l-30.833-44.375l-125,31.25L586.458,1496.875z"/>
			<path style="fill:#1F3C88;" d="M587.708,1415c-28.75-46.25-28.75-137.5,7.5-178.75c41.43-47.145,130-65,176.25-10
				s131.25,256.25,148.75,392.5c0,0-93.75-31.25-157.5,46.25c0,0-83.75-191.25-101.25-261.25l-47.5,37.5L587.708,1415z"/>
			<path style="fill:#D3DFFF;" d="M661.458,1403.75c0,0-12.5-4.583-30,7.083c0,0-136.667-2.917-167.083,27.917
				c-30.417,30.833-7.083,72.083,37.5,76.667c37.418,3.847,110.056-25.179,132.438-34.608c4.546-1.915,9.376-3.066,14.298-3.388
				l37.014-2.422L661.458,1403.75z"/>
			<path style="fill:#F9B384;" d="M716.036,770.049c0,0-9.166-30.379-29.331-22.784c-20.165,7.595-9.428,47.14,30.379,58.139
				L716.036,770.049z"/>
			<path style="fill:#1F3C88;" d="M694.561,937.564c9.953,7.019,20.56,13.057,31.81,17.337c11.24,4.215,23.1,6.885,34.998,6.602
				c11.869-0.145,23.624-3.072,34.23-8.496l3.992-2.029c1.307-0.72,2.507-1.626,3.769-2.431c2.489-1.664,5.066-3.226,7.29-5.27
				l3.512-2.849l1.763-1.426c0.571-0.494,1.08-1.056,1.623-1.581c2.133-2.144,4.296-4.271,6.496-6.385l1.495,1.259
				c-1.968,2.378-3.973,4.743-6.009,7.09c-0.515,0.581-0.995,1.197-1.54,1.75l-1.692,1.604l-3.399,3.211
				c-2.208,2.221-4.802,3.98-7.323,5.842c-1.278,0.904-2.495,1.907-3.83,2.73l-4.095,2.339c-10.96,6.182-23.599,9.52-36.23,9.594
				c-12.631,0.029-25.165-2.709-36.631-7.641c-11.501-4.883-22.085-11.646-31.435-19.713L694.561,937.564z"/>
			<path style="fill:#102048;" d="M640.743,1323.942l10.832,37.9c3.684,12.607,7.129,25.277,10.979,37.825
				c3.768,12.57,7.523,25.142,11.476,37.646c1.977,6.25,3.93,12.516,6.097,18.7c1.057,3.101,2.015,6.246,3.134,9.325
				c1.118,3.08,2.207,6.174,3.265,9.285l-1.803,0.754c-2.791-5.976-5.407-12.041-7.876-18.157
				c-2.456-6.125-4.694-12.325-6.959-18.518c-4.44-12.417-8.366-25-12.087-37.635c-3.607-12.668-7.174-25.344-10.306-38.134
				c-3.168-12.78-6.16-25.597-8.655-38.54L640.743,1323.942z"/>
			<path style="opacity:0.1;fill:#1F3C88;" d="M938.433,1802.8c-12.65,3.575-30.6,4.45-55.3,0.525c0,0-52.925,13.55-86.362,18.863
				c34.375-6.875,84.375-49.375,78.75-76.25C924.896,1762.188,938.333,1786.875,938.433,1802.8z"/>
			<path style="opacity:0.4;fill:#1F3C88;" d="M805.508,1807.5c-6.375,7.85-15.875,13.175-25.85,15.85
				c-5.225,1.4-10.6,2.15-16,2.325c-20.675-1.475-46.725-12.25-60.55-27.65c-0.025-0.05-0.05-0.1-0.1-0.125
				c-1.475-2-2.85-4.075-4.05-6.225c7.35,6.85,15.35,12.45,23.975,16.725c4.325,2.05,8.7,4.025,13.275,5.4
				c2.225,0.85,4.55,1.35,6.85,2c2.275,0.7,4.65,0.975,7,1.4C768.733,1820.35,788.558,1818.4,805.508,1807.5z"/>
			<path style="fill:#E28B6D;" d="M706.976,774.359c-0.464-2.728-1.747-5.275-3.257-7.6c-1.544-2.297-3.384-4.444-5.511-5.947
				c-2.13-1.49-4.442-2.234-6.391-1.179c-2.047,1.019-3.668,3.504-5.083,6.024l-1.384-0.482c0.596-2.964,1.692-6.227,4.796-8.38
				c1.531-1.069,3.627-1.449,5.448-1.12c1.83,0.331,3.431,1.117,4.783,2.099c2.699,1.986,4.676,4.566,6.115,7.385
				c1.395,2.809,2.398,5.981,1.95,9.231L706.976,774.359z"/>
			<path style="fill:#102048;" d="M825.925,773.602c-0.879,4.312-4.128,7.291-7.256,6.654c-3.129-0.638-4.952-4.65-4.073-8.963
				c0.879-4.312,4.127-7.291,7.256-6.654C824.98,765.277,826.804,769.29,825.925,773.602z"/>
			
				<ellipse transform="matrix(0.1609 -0.987 0.987 0.1609 -113.3881 1408.1874)" style="fill:#102048;" cx="771.51" cy="770.781" rx="7.969" ry="5.781"/>
			<path style="fill:#E28B6D;" d="M797.891,777.577c0.297,3.549,0.44,7.082,0.48,10.539c0.14,1.323,0.755,2.455,1.859,3.658
				c1.065,1.193,2.443,2.44,3.633,4.177c0.596,0.857,1.064,1.952,1.294,3.03c0.25,1.072,0.281,2.136,0.211,3.183
				c-0.177,2.081-0.914,4.129-2.299,5.813c-0.677,0.847-1.583,1.544-2.57,2.054c-1.025,0.441-2.128,0.723-3.19,0.672
				c-2.136-0.095-3.973-0.922-5.5-1.992l0.693-1.292c1.618,0.527,3.235,0.933,4.663,0.664c1.416-0.198,2.544-0.955,3.297-2.117
				c1.529-2.28,1.752-5.848,0.276-7.975c-0.771-1.234-2.048-2.393-3.258-3.917c-1.223-1.443-2.391-3.623-2.309-5.891
				c0.271-3.632,0.704-7.189,1.259-10.728L797.891,777.577z"/>
			<path style="fill:#102048;" d="M757.591,756.646c1.992-1.987,4.36-3.637,7.02-4.82c2.648-1.191,5.654-1.85,8.701-1.662
				c3.047,0.177,6.036,1.31,8.417,3.084c2.401,1.76,4.251,4.045,5.62,6.511l-1.157,0.9c-2.067-1.76-4.063-3.414-6.242-4.639
				c-2.172-1.223-4.498-1.967-6.901-2.133c-4.847-0.371-9.779,1.559-14.599,3.947L757.591,756.646z"/>
			<path style="fill:#102048;" d="M808.457,760.926c0.827-2.661,3.039-4.76,5.476-6.008c2.461-1.285,5.235-1.829,7.976-1.783
				c2.743,0.06,5.5,0.765,7.888,2.168c2.389,1.379,4.367,3.5,5.4,5.964l-1.228,0.801c-3.398-3.416-7.669-5.05-12.157-5.202
				c-4.425-0.099-9.111,1.122-12.04,4.709L808.457,760.926z"/>
			<path style="fill:#FFFFFF;" d="M774.325,819.63l33.162,2.363C807.487,821.993,788.988,846.529,774.325,819.63z"/>
			<path style="opacity:0.4;fill:#EE6F57;" d="M838.358,784.975c-2.4,12.4-5.825,25.1-10.75,36.275
				c-6.475-3.05-10.95-9.65-10.95-17.3c0-10.575,8.6-19.15,19.175-19.15C836.683,784.8,837.533,784.85,838.358,784.975z"/>
			
				<ellipse transform="matrix(0.922 -0.3872 0.3872 0.922 -250.7845 354.2986)" style="opacity:0.4;fill:#EE6F57;" cx="753.958" cy="799.583" rx="19.167" ry="19.167"/>
		</g>
		<g>
			<path style="fill:#FFFFFF;stroke:#8CBFBE;stroke-width:3.5;stroke-miterlimit:10;" d="M484.39,761.69
				c21.02-23.274,33.826-54.109,33.826-87.94c0-72.492-58.766-131.258-131.258-131.258c-72.491,0-131.257,58.766-131.257,131.258
				c0,72.491,58.766,131.258,131.257,131.258c16.787,0,32.821-3.186,47.577-8.929l70.461,28.759L484.39,761.69z"/>
			<g>
				<circle style="fill:#8CBFBE;" cx="328.348" cy="676.914" r="14.016"/>
				<circle style="fill:#8CBFBE;" cx="386.959" cy="676.914" r="14.016"/>
				<circle style="fill:#8CBFBE;" cx="445.569" cy="676.914" r="14.016"/>
			</g>
		</g>
		<g>
			<path style="fill:#FFFFFF;stroke:#8CBFBE;stroke-width:3.5;stroke-miterlimit:10;" d="M820,303.478H561.835
				c-14.641,0-26.619,11.979-26.619,26.619v110.784c0,14.641,11.979,26.619,26.619,26.619h23.839l38.748,58.242l11.523-58.242H820
				c14.641,0,26.619-11.979,26.619-26.619V330.097C846.619,315.456,834.641,303.478,820,303.478z"/>
			<g>
				<rect x="580.345" y="343.805" style="fill:#8CBFBE;" width="221.144" height="12.705"/>
				<rect x="580.345" y="377.299" style="fill:#C6EAE9;" width="221.144" height="12.705"/>
				<rect x="580.345" y="410.793" style="fill:#C6EAE9;" width="221.144" height="12.705"/>
			</g>
		</g>
	</g>
</g>
</svg>
